<?xml version="1.0" standalone="no"?>
<!DOCTYPE svg PUBLIC "-//W3C//DTD SVG 20010904//EN"
 "http://www.w3.org/TR/2001/REC-SVG-20010904/DTD/svg10.dtd">
<svg version="1.0" xmlns="http://www.w3.org/2000/svg"
 width="700.000000pt" height="700.000000pt" viewBox="0 0 700.000000 700.000000"
 preserveAspectRatio="xMidYMid meet">
<metadata>
Created by potrace 1.11, written by Peter Selinger 2001-2013
</metadata>
<g transform="translate(0.000000,700.000000) scale(0.100000,-0.100000)"
fill="#000000" stroke="none">
<path d="M1978 6404 c-2 -1 -33 -5 -69 -8 -184 -18 -396 -82 -583 -177 -168
-85 -294 -177 -431 -314 -249 -248 -426 -580 -501 -935 -33 -158 -39 -228 -39
-425 1 -200 10 -296 46 -480 32 -164 105 -409 154 -520 7 -16 28 -64 46 -105
86 -202 210 -420 373 -657 39 -58 78 -114 86 -126 22 -33 102 -138 126 -167
12 -14 49 -59 83 -100 135 -164 258 -296 456 -491 77 -76 149 -146 161 -156
17 -14 103 -92 198 -178 29 -27 309 -257 371 -305 39 -30 72 -57 75 -60 10
-11 346 -258 430 -315 47 -33 87 -62 90 -66 3 -3 10 -8 15 -10 6 -2 91 -58
189 -123 199 -132 238 -146 292 -108 16 11 110 73 209 137 189 124 498 342
503 356 2 5 8 9 13 9 5 0 59 39 121 87 62 48 131 101 153 118 22 17 51 40 65
52 14 11 84 70 156 129 72 60 170 144 217 188 48 43 97 87 109 98 75 64 340
335 451 459 37 43 77 88 89 100 11 13 74 92 140 174 65 83 124 156 130 164 6
7 61 88 122 180 184 275 326 548 420 811 15 41 32 85 37 98 10 26 55 184 63
222 9 46 15 71 20 88 11 36 36 199 43 276 30 348 -34 750 -165 1041 -259 574
-788 966 -1392 1031 -83 9 -222 10 -326 1 -368 -30 -640 -119 -854 -277 -137
-102 -217 -196 -339 -393 l-73 -118 -46 78 c-177 304 -428 510 -761 622 -98
34 -237 69 -299 77 -20 2 -55 7 -77 10 -40 6 -292 13 -297 8z"/>
</g>
</svg>
